<svg width="26" height="29" viewBox="0 0 26 29" fill="none" xmlns="http://www.w3.org/2000/svg">
<path d="M12.02 7.90997C8.71 7.90997 6.02 10.6 6.02 13.91V16.8C6.02 17.41 5.76 18.34 5.45 18.86L4.3 20.77C3.59 21.95 4.08 23.26 5.38 23.7C9.69 25.14 14.34 25.14 18.65 23.7C19.86 23.3 20.39 21.87 19.73 20.77L18.58 18.86C18.28 18.34 18.02 17.41 18.02 16.8V13.91C18.02 10.61 15.32 7.90997 12.02 7.90997Z" stroke="#FDFDFD" stroke-width="1.5" stroke-miterlimit="10" stroke-linecap="round"/>
<path d="M13.87 8.2C13.56 8.11 13.24 8.04 12.91 8C11.95 7.88 11.03 7.95 10.17 8.2C10.46 7.46 11.18 6.94 12.02 6.94C12.86 6.94 13.58 7.46 13.87 8.2Z" stroke="#FDFDFD" stroke-width="1.5" stroke-miterlimit="10" stroke-linecap="round" stroke-linejoin="round"/>
<path d="M15.02 24.06C15.02 25.71 13.67 27.06 12.02 27.06C11.2 27.06 10.44 26.72 9.9 26.18C9.36 25.64 9.02 24.88 9.02 24.06" stroke="#FDFDFD" stroke-width="1.5" stroke-miterlimit="10"/>
<circle cx="22.5" cy="3.5" r="3.5" fill="#F33439"/>
</svg>
