<svg width="54" height="54" viewBox="0 0 54 54" fill="none" xmlns="http://www.w3.org/2000/svg">
<path d="M49.7644 30.2835C47.9518 42.8537 36.2893 51.5755 23.7119 49.7637C11.1438 47.9513 2.4209 36.288 4.23563 23.7163C6.04489 11.1438 17.7074 2.422 30.2809 4.23513C42.8544 6.04825 51.5773 17.7115 49.7644 30.2835V30.2835Z" fill="#F4A100"/>
<path d="M36.7607 22.712C36.9071 19.6211 34.4224 18.2199 31.1385 17.4489L31.7485 13.2184L29.1748 12.8472L28.581 16.9649C27.9053 16.8674 27.2113 16.7804 26.5225 16.6959L27.1202 12.5509L24.5465 12.1798L23.9351 16.4065C23.3762 16.337 22.8264 16.2689 22.2927 16.1919L22.2945 16.1792L18.7448 15.6654L18.3482 18.4154C18.3482 18.4154 20.2551 18.6532 20.2173 18.6831C21.261 18.8336 21.5126 19.487 21.5356 20.0239L20.8407 24.8427C20.9135 24.8532 21.0059 24.8702 21.1095 24.9L20.8381 24.8609L19.8627 31.6117C19.7699 31.9329 19.5015 32.4278 18.7726 32.3245C18.8012 32.3584 16.902 32.0548 16.902 32.0548L15.9469 35.0551L19.2983 35.5384C19.9213 35.6282 20.5335 35.7277 21.1341 35.818L20.519 40.0961L23.0909 40.467L23.7012 36.2346C24.404 36.3509 25.0863 36.4548 25.7548 36.5512L25.1455 40.7633L27.7192 41.1344L28.3348 36.8656C32.6983 37.242 35.8883 36.5885 36.8497 32.5777C37.6258 29.349 36.2976 27.6646 33.9255 26.7203C35.5302 26.1783 36.6576 24.9745 36.7607 22.712V22.712ZM31.839 31.3384C31.3781 34.5345 25.9569 33.3828 24.2102 33.1309L25.0277 27.4617C26.7739 27.7172 32.3196 28.0057 31.839 31.3384V31.3384ZM31.7937 23.1688C31.3743 26.0772 26.8552 25.0779 25.4014 24.8701L26.1425 19.7308C27.5978 19.9407 32.2327 20.1369 31.7937 23.1688Z" fill="white"/>
<path d="M20.8605 24.7303L21.243 24.7854L21.2023 25.0677L20.8198 25.0126L20.8605 24.7303Z" fill="white"/>
</svg>
