<svg width="76" height="76" viewBox="0 0 76 76" fill="none" xmlns="http://www.w3.org/2000/svg">
<path d="M38.0005 25.3339V38.0001L44.3344 44.3339M50.6667 60.1663L57.0005 66.5001M25.3344 60.1663L19.0005 66.5001M19.0005 9.50009C16.855 9.51282 14.777 10.2514 13.1048 11.5957C11.4326 12.94 10.2646 14.8107 9.79114 16.9033C9.31763 18.996 9.56643 21.1873 10.497 23.1205C11.4277 25.0537 12.9853 26.615 14.9163 27.5501C17.4554 21.9267 21.9591 17.423 27.5824 14.8839C26.8057 13.2682 25.5877 11.9053 24.069 10.9526C22.5504 9.99989 20.7932 9.49633 19.0005 9.50009ZM57.0005 9.50009C55.2098 9.50523 53.457 10.0164 51.9443 10.9746C50.4315 11.9328 49.2204 13.2991 48.4505 14.9159C54.0739 17.4549 58.5776 21.9586 61.1167 27.582C63.0682 26.6555 64.6457 25.0916 65.589 23.1482C66.5323 21.2047 66.785 18.9978 66.3055 16.8914C65.826 14.785 64.6429 12.9049 62.9514 11.5612C61.2598 10.2176 59.1608 9.49055 57.0005 9.50009Z" stroke="#DEDEDE" stroke-width="3.04" stroke-linecap="round" stroke-linejoin="round"/>
<path d="M63.3345 37.9998C63.3345 44.7188 60.6654 51.1625 55.9144 55.9136C51.1634 60.6646 44.7196 63.3337 38.0007 63.3337C31.2817 63.3337 24.838 60.6646 20.087 55.9136C15.3359 51.1625 12.6668 44.7188 12.6668 37.9998C12.6571 34.3953 13.4243 30.831 14.9164 27.5498C17.4555 21.9265 21.9592 17.4228 27.5826 14.8837C30.8659 13.3973 34.4285 12.6284 38.0326 12.6284C41.6367 12.6284 45.1993 13.3973 48.4826 14.8837C54.106 17.4228 58.6097 21.9265 61.1488 27.5498C62.6189 30.8359 63.3644 34.4 63.3345 37.9998Z" stroke="#F33439" stroke-width="3.04" stroke-linecap="round" stroke-linejoin="round"/>
</svg>
