<svg width="16" height="18" viewBox="0 0 16 18" fill="none" xmlns="http://www.w3.org/2000/svg">
<path d="M3.5 8.25C3.5 6.129 3.5 5.06775 4.15925 4.40925C4.81775 3.75 5.879 3.75 8 3.75H10.25C12.371 3.75 13.4323 3.75 14.0908 4.40925C14.75 5.06775 14.75 6.129 14.75 8.25V12C14.75 14.121 14.75 15.1823 14.0908 15.8408C13.4323 16.5 12.371 16.5 10.25 16.5H8C5.879 16.5 4.81775 16.5 4.15925 15.8408C3.5 15.1823 3.5 14.121 3.5 12V8.25Z" stroke="white" stroke-width="1.125"/>
<path d="M3.5 14.25C2.90326 14.25 2.33097 14.0129 1.90901 13.591C1.48705 13.169 1.25 12.5967 1.25 12V7.5C1.25 4.67175 1.25 3.25725 2.129 2.379C3.008 1.50075 4.42175 1.5 7.25 1.5H10.25C10.8467 1.5 11.419 1.73705 11.841 2.15901C12.2629 2.58097 12.5 3.15326 12.5 3.75" stroke="white" stroke-width="1.125"/>
</svg>
