<svg width="58" height="46" viewBox="0 0 58 46" fill="none" xmlns="http://www.w3.org/2000/svg">
<path d="M39.238 13.0476C39.238 7.26474 34.5447 2.57141 28.7618 2.57141C22.979 2.57141 18.2856 7.26474 18.2856 13.0476C18.2856 18.8305 22.979 23.5238 28.7618 23.5238" stroke="white" stroke-width="1.57143" stroke-linecap="round" stroke-linejoin="round"/>
<path d="M24.5713 3.61902H25.6189C23.5761 9.73711 23.5761 16.3581 25.6189 22.4762H24.5713" stroke="white" stroke-width="1.57143" stroke-linecap="round" stroke-linejoin="round"/>
<path d="M31.9047 3.61902C32.9209 6.67807 33.4342 9.86283 33.4342 13.0476" stroke="white" stroke-width="1.57143" stroke-linecap="round" stroke-linejoin="round"/>
<path d="M19.3333 17.238V16.1904C22.3923 17.2066 25.5771 17.72 28.7618 17.72" stroke="white" stroke-width="1.57143" stroke-linecap="round" stroke-linejoin="round"/>
<path d="M19.3333 9.9047C25.4513 7.86184 32.0723 7.86184 38.1904 9.9047" stroke="white" stroke-width="1.57143" stroke-linecap="round" stroke-linejoin="round"/>
<path d="M35.257 22.8952C37.1085 22.8952 38.6094 21.3943 38.6094 19.5428C38.6094 17.6914 37.1085 16.1904 35.257 16.1904C33.4056 16.1904 31.9047 17.6914 31.9047 19.5428C31.9047 21.3943 33.4056 22.8952 35.257 22.8952Z" stroke="white" stroke-width="1.57143" stroke-linecap="round" stroke-linejoin="round"/>
<path d="M39.238 23.5238L38.1904 22.4762" stroke="white" stroke-width="1.57143" stroke-linecap="round" stroke-linejoin="round"/>
<path d="M13.4029 34.5715H16.1372C16.6959 34.5715 17.1953 34.6553 17.6353 34.8229C18.0823 34.9835 18.4594 35.221 18.7667 35.5353C19.081 35.8426 19.3185 36.2232 19.4791 36.6772C19.6467 37.1311 19.7305 37.6515 19.7305 38.2381C19.7305 38.8248 19.6467 39.3451 19.4791 39.7991C19.3185 40.253 19.081 40.6372 18.7667 40.9515C18.4594 41.2588 18.0823 41.4962 17.6353 41.6638C17.1953 41.8245 16.6959 41.9048 16.1372 41.9048H13.4029V34.5715ZM18.1067 38.2381C18.1067 37.8819 18.0648 37.5607 17.981 37.2743C17.9042 36.981 17.782 36.7295 17.6143 36.52C17.4537 36.3105 17.2477 36.1499 16.9962 36.0381C16.7448 35.9264 16.4445 35.8705 16.0953 35.8705H14.9848V40.6057H16.0953C16.4445 40.6057 16.7448 40.5499 16.9962 40.4381C17.2477 40.3264 17.4537 40.1657 17.6143 39.9562C17.782 39.7467 17.9042 39.4988 17.981 39.2124C18.0648 38.9191 18.1067 38.5943 18.1067 38.2381ZM26.9339 41.9048H25.3101L24.7234 40.2076H22.0939L21.5072 41.9048H19.9672L22.6072 34.5715H24.2939L26.9339 41.9048ZM23.3929 36.2895C23.379 36.3524 23.3545 36.4362 23.3196 36.541C23.2847 36.6457 23.2463 36.768 23.2044 36.9076C23.1625 37.0403 23.1136 37.1835 23.0577 37.3372C23.0088 37.4908 22.9599 37.6445 22.911 37.7981C22.7923 38.1543 22.6631 38.5419 22.5234 38.961H24.2939C24.1472 38.5419 24.0145 38.1543 23.8958 37.7981C23.8399 37.6445 23.7875 37.4908 23.7387 37.3372C23.6898 37.1835 23.6444 37.0403 23.6025 36.9076C23.5606 36.768 23.5222 36.6457 23.4872 36.541C23.4523 36.4362 23.4279 36.3524 23.4139 36.2895H23.3929ZM30.8343 42.0515C30.4153 42.0515 30.08 41.9746 29.8286 41.821C29.5842 41.6673 29.3991 41.4927 29.2734 41.2972V44H27.7648V36.9181H29.221V37.6305C29.3607 37.3721 29.5737 37.1661 29.86 37.0124C30.1464 36.8518 30.4711 36.7715 30.8343 36.7715C31.1416 36.7715 31.428 36.8343 31.6934 36.96C31.9657 37.0788 32.1997 37.2534 32.3953 37.4838C32.5978 37.7143 32.7549 37.9937 32.8667 38.3219C32.9854 38.6432 33.0448 39.0064 33.0448 39.4115C33.0448 39.8235 32.9854 40.1937 32.8667 40.5219C32.7549 40.8432 32.5978 41.1191 32.3953 41.3495C32.1997 41.573 31.9657 41.7476 31.6934 41.8734C31.428 41.9921 31.1416 42.0515 30.8343 42.0515ZM29.2629 39.5581C29.2629 39.7956 29.2978 39.9981 29.3676 40.1657C29.4445 40.3334 29.5388 40.473 29.6505 40.5848C29.7623 40.6895 29.8845 40.7664 30.0172 40.8153C30.1569 40.8642 30.2896 40.8886 30.4153 40.8886C30.7505 40.8886 31.0159 40.7489 31.2115 40.4695C31.407 40.1902 31.5048 39.8375 31.5048 39.4115C31.5048 38.9924 31.407 38.6432 31.2115 38.3638C31.0159 38.0775 30.7505 37.9343 30.4153 37.9343C30.2826 37.9343 30.1464 37.9588 30.0067 38.0076C29.874 38.0565 29.7518 38.1368 29.64 38.2486C29.5283 38.3534 29.4375 38.493 29.3676 38.6676C29.2978 38.8353 29.2629 39.0378 29.2629 39.2753V39.5581ZM37.1364 42.0515C36.7174 42.0515 36.3821 41.9746 36.1307 41.821C35.8862 41.6673 35.7012 41.4927 35.5754 41.2972V44H34.0669V36.9181H35.5231V37.6305C35.6627 37.3721 35.8758 37.1661 36.1621 37.0124C36.4485 36.8518 36.7732 36.7715 37.1364 36.7715C37.4437 36.7715 37.7301 36.8343 37.9954 36.96C38.2678 37.0788 38.5018 37.2534 38.6974 37.4838C38.8999 37.7143 39.057 37.9937 39.1688 38.3219C39.2875 38.6432 39.3469 39.0064 39.3469 39.4115C39.3469 39.8235 39.2875 40.1937 39.1688 40.5219C39.057 40.8432 38.8999 41.1191 38.6974 41.3495C38.5018 41.573 38.2678 41.7476 37.9954 41.8734C37.7301 41.9921 37.4437 42.0515 37.1364 42.0515ZM35.565 39.5581C35.565 39.7956 35.5999 39.9981 35.6697 40.1657C35.7466 40.3334 35.8408 40.473 35.9526 40.5848C36.0643 40.6895 36.1866 40.7664 36.3193 40.8153C36.4589 40.8642 36.5916 40.8886 36.7174 40.8886C37.0526 40.8886 37.318 40.7489 37.5135 40.4695C37.7091 40.1902 37.8069 39.8375 37.8069 39.4115C37.8069 38.9924 37.7091 38.6432 37.5135 38.3638C37.318 38.0775 37.0526 37.9343 36.7174 37.9343C36.5847 37.9343 36.4485 37.9588 36.3088 38.0076C36.1761 38.0565 36.0539 38.1368 35.9421 38.2486C35.8304 38.3534 35.7396 38.493 35.6697 38.6676C35.5999 38.8353 35.565 39.0378 35.565 39.2753V39.5581ZM41.6261 38.28C41.6261 38.3778 41.6505 38.4581 41.6994 38.521C41.7553 38.5838 41.8251 38.6362 41.909 38.6781C41.9928 38.713 42.0871 38.741 42.1918 38.7619C42.3036 38.7829 42.4153 38.8003 42.5271 38.8143C42.7855 38.8492 43.0369 38.9016 43.2813 38.9715C43.5258 39.0343 43.7423 39.1251 43.9309 39.2438C44.1194 39.3626 44.2696 39.5162 44.3813 39.7048C44.5001 39.8864 44.5594 40.1134 44.5594 40.3857C44.5594 40.6511 44.5036 40.8886 44.3918 41.0981C44.2801 41.3007 44.1229 41.4753 43.9204 41.6219C43.7178 41.7616 43.4769 41.8664 43.1975 41.9362C42.9251 42.013 42.6213 42.0515 42.2861 42.0515C41.9788 42.0515 41.689 42.02 41.4166 41.9572C41.1512 41.8943 40.9137 41.8035 40.7042 41.6848C40.5017 41.5591 40.334 41.4089 40.2013 41.2343C40.0756 41.0527 39.9953 40.8432 39.9604 40.6057L41.4166 40.3857C41.4375 40.6092 41.5353 40.7664 41.7099 40.8572C41.8845 40.948 42.0836 40.9934 42.3071 40.9934C42.5096 40.9934 42.6807 40.9584 42.8204 40.8886C42.9671 40.8118 43.0404 40.6826 43.0404 40.501C43.0404 40.3473 42.974 40.2356 42.8413 40.1657C42.7086 40.0959 42.4677 40.033 42.1185 39.9772C41.8671 39.9422 41.6191 39.8934 41.3747 39.8305C41.1372 39.7676 40.9242 39.6803 40.7356 39.5686C40.5471 39.4499 40.3934 39.2997 40.2747 39.1181C40.1629 38.9295 40.1071 38.6921 40.1071 38.4057C40.1071 38.1194 40.1699 37.8749 40.2956 37.6724C40.4213 37.4629 40.5855 37.2918 40.788 37.1591C40.9905 37.0264 41.2245 36.9286 41.4899 36.8657C41.7553 36.8029 42.0277 36.7715 42.3071 36.7715C42.5864 36.7715 42.8483 36.8029 43.0928 36.8657C43.3442 36.9216 43.5677 37.0054 43.7632 37.1172C43.9588 37.2289 44.1194 37.3686 44.2451 37.5362C44.3709 37.7038 44.4547 37.8924 44.4966 38.1019L43.0509 38.3953C43.0229 38.2137 42.9426 38.074 42.8099 37.9762C42.6772 37.8784 42.5096 37.8295 42.3071 37.8295C42.1185 37.8295 41.9578 37.8715 41.8251 37.9553C41.6925 38.0321 41.6261 38.1403 41.6261 38.28Z" fill="white"/>
</svg>
