<svg width="52" height="52" viewBox="0 0 52 52" fill="none" xmlns="http://www.w3.org/2000/svg">
<g filter="url(#filter0_d_281_4086)">
<circle cx="26" cy="25" r="23" fill="#F6F6F6"/>
<path d="M25.9984 10.2142L25.795 10.8881V30.4414L25.9984 30.6394L35.3038 25.2743L25.9984 10.2142Z" fill="#343434"/>
<path d="M25.9962 10.2142L16.6905 25.2743L25.9962 30.6394V21.1487V10.2142Z" fill="#8C8C8C"/>
<path d="M25.9984 32.3577L25.8838 32.4941V39.4593L25.9984 39.7857L35.3096 26.9955L25.9984 32.3577Z" fill="#3C3C3B"/>
<path d="M25.9962 39.7857V32.3577L16.6905 26.9955L25.9962 39.7857Z" fill="#8C8C8C"/>
<path d="M25.9948 30.6391L35.3003 25.274L25.9948 21.1484V30.6391Z" fill="#141414"/>
<path d="M16.6905 25.274L25.9962 30.6391V21.1484L16.6905 25.274Z" fill="#393939"/>
</g>
<defs>
<filter id="filter0_d_281_4086" x="0" y="0" width="52" height="52" filterUnits="userSpaceOnUse" color-interpolation-filters="sRGB">
<feFlood flood-opacity="0" result="BackgroundImageFix"/>
<feColorMatrix in="SourceAlpha" type="matrix" values="0 0 0 0 0 0 0 0 0 0 0 0 0 0 0 0 0 0 127 0" result="hardAlpha"/>
<feOffset dy="1"/>
<feGaussianBlur stdDeviation="1.5"/>
<feColorMatrix type="matrix" values="0 0 0 0 0.129412 0 0 0 0 0.105882 0 0 0 0 0.305882 0 0 0 0.15 0"/>
<feBlend mode="normal" in2="BackgroundImageFix" result="effect1_dropShadow_281_4086"/>
<feBlend mode="normal" in="SourceGraphic" in2="effect1_dropShadow_281_4086" result="shape"/>
</filter>
</defs>
</svg>
