<svg width="19" height="19" viewBox="0 0 19 19" fill="none" xmlns="http://www.w3.org/2000/svg">
<g clip-path="url(#clip0_515_1558)">
<path d="M9.5 7.77271V11.4518H14.6127C14.3882 12.635 13.7145 13.6368 12.7041 14.3105L15.7872 16.7028C17.5836 15.0446 18.6199 12.6092 18.6199 9.71598C18.6199 9.04236 18.5595 8.39457 18.4472 7.77281L9.5 7.77271Z" fill="#4285F4"/>
<path d="M4.17582 11.3081L3.48045 11.8404L1.01904 13.7576C2.58222 16.8581 5.78607 18.9999 9.49968 18.9999C12.0646 18.9999 14.215 18.1536 15.7869 16.7027L12.7037 14.3104C11.8574 14.8804 10.7778 15.2259 9.49968 15.2259C7.02969 15.2259 4.93112 13.5591 4.1797 11.3136L4.17582 11.3081Z" fill="#34A853"/>
<path d="M1.01902 5.24219C0.371325 6.52032 0 7.96261 0 9.49986C0 11.0371 0.371325 12.4794 1.01902 13.7575C1.01902 13.7661 4.17998 11.3048 4.17998 11.3048C3.98998 10.7348 3.87768 10.1303 3.87768 9.49976C3.87768 8.86922 3.98998 8.26471 4.17998 7.69472L1.01902 5.24219Z" fill="#FBBC05"/>
<path d="M9.49988 3.78272C10.899 3.78272 12.1426 4.26635 13.1358 5.19909L15.8562 2.47867C14.2067 0.941422 12.0649 0 9.49988 0C5.78627 0 2.58222 2.13318 1.01904 5.24228L4.17991 7.69501C4.93123 5.44953 7.02989 3.78272 9.49988 3.78272Z" fill="#EA4335"/>
</g>
<defs>
<clipPath id="clip0_515_1558">
<rect width="19" height="19" fill="white"/>
</clipPath>
</defs>
</svg>
