<svg width="21" height="18" viewBox="0 0 21 18" fill="none" xmlns="http://www.w3.org/2000/svg">
<path d="M4.8702 3.111C4.8702 3.7151 4.63022 4.29445 4.20306 4.72161C3.7759 5.14878 3.19654 5.38875 2.59245 5.38875C1.98835 5.38875 1.409 5.14878 0.981835 4.72161C0.554674 4.29445 0.314697 3.7151 0.314697 3.111C0.314697 2.50691 0.554674 1.92755 0.981835 1.50039C1.409 1.07323 1.98835 0.833252 2.59245 0.833252C3.19654 0.833252 3.7759 1.07323 4.20306 1.50039C4.63022 1.92755 4.8702 2.50691 4.8702 3.111ZM4.8702 9.185C4.8702 9.7891 4.63022 10.3685 4.20306 10.7956C3.7759 11.2228 3.19654 11.4628 2.59245 11.4628C1.98835 11.4628 1.409 11.2228 0.981835 10.7956C0.554674 10.3685 0.314697 9.7891 0.314697 9.185C0.314697 8.58091 0.554674 8.00155 0.981835 7.57439C1.409 7.14723 1.98835 6.90725 2.59245 6.90725C3.19654 6.90725 3.7759 7.14723 4.20306 7.57439C4.63022 8.00155 4.8702 8.58091 4.8702 9.185ZM4.8702 15.259C4.8702 15.8631 4.63022 16.4425 4.20306 16.8696C3.7759 17.2968 3.19654 17.5368 2.59245 17.5368C1.98835 17.5368 1.409 17.2968 0.981835 16.8696C0.554674 16.4425 0.314697 15.8631 0.314697 15.259C0.314697 14.6549 0.554674 14.0756 0.981835 13.6484C1.409 13.2212 1.98835 12.9813 2.59245 12.9813C3.19654 12.9813 3.7759 13.2212 4.20306 13.6484C4.63022 14.0756 4.8702 14.6549 4.8702 15.259Z" fill="white"/>
<path fill-rule="evenodd" clip-rule="evenodd" d="M6.38867 3.11103C6.38867 2.7083 6.54866 2.32206 6.83343 2.03729C7.1182 1.75251 7.50444 1.59253 7.90717 1.59253H18.5367C18.9394 1.59253 19.3256 1.75251 19.6104 2.03729C19.8952 2.32206 20.0552 2.7083 20.0552 3.11103C20.0552 3.51376 19.8952 3.9 19.6104 4.18477C19.3256 4.46954 18.9394 4.62953 18.5367 4.62953H7.90717C7.50444 4.62953 7.1182 4.46954 6.83343 4.18477C6.54866 3.9 6.38867 3.51376 6.38867 3.11103ZM6.38867 9.18503C6.38867 8.7823 6.54866 8.39606 6.83343 8.11129C7.1182 7.82651 7.50444 7.66653 7.90717 7.66653H18.5367C18.9394 7.66653 19.3256 7.82651 19.6104 8.11129C19.8952 8.39606 20.0552 8.7823 20.0552 9.18503C20.0552 9.58776 19.8952 9.974 19.6104 10.2588C19.3256 10.5435 18.9394 10.7035 18.5367 10.7035H7.90717C7.50444 10.7035 7.1182 10.5435 6.83343 10.2588C6.54866 9.974 6.38867 9.58776 6.38867 9.18503ZM6.38867 15.259C6.38867 14.8563 6.54866 14.4701 6.83343 14.1853C7.1182 13.9005 7.50444 13.7405 7.90717 13.7405H18.5367C18.9394 13.7405 19.3256 13.9005 19.6104 14.1853C19.8952 14.4701 20.0552 14.8563 20.0552 15.259C20.0552 15.6618 19.8952 16.048 19.6104 16.3328C19.3256 16.6175 18.9394 16.7775 18.5367 16.7775H7.90717C7.50444 16.7775 7.1182 16.6175 6.83343 16.3328C6.54866 16.048 6.38867 15.6618 6.38867 15.259Z" fill="white"/>
</svg>
