<svg width="27" height="46" viewBox="0 0 27 46" fill="none" xmlns="http://www.w3.org/2000/svg">
<path d="M13.0476 19.3333V16.1904" stroke="white" stroke-width="1.57143" stroke-linecap="round" stroke-linejoin="round"/>
<path d="M11.0257 3.43047L3.76575 9.24476C2.94861 9.89428 2.4248 11.2667 2.60289 12.2933L3.99622 20.6324C4.24765 22.12 5.67241 23.3248 7.18099 23.3248H18.9143C20.4124 23.3248 21.8477 22.1095 22.0991 20.6324L23.4924 12.2933C23.66 11.2667 23.1362 9.89428 22.3296 9.24476L15.0696 3.44095C13.9486 2.53999 12.1362 2.53999 11.0257 3.43047Z" stroke="white" stroke-width="1.57143" stroke-linecap="round" stroke-linejoin="round"/>
<path d="M0.486071 34.5715H1.3975V37.7457H4.9594V34.5715H5.87083V41.9048H4.9594V38.4791H1.3975V41.9048H0.486071V34.5715ZM9.65626 36.8343C10.0334 36.8343 10.3686 36.9007 10.662 37.0334C10.9553 37.1591 11.2032 37.3372 11.4058 37.5676C11.6153 37.7981 11.7724 38.074 11.8772 38.3953C11.982 38.7095 12.0344 39.0553 12.0344 39.4324C12.0344 39.8095 11.982 40.1588 11.8772 40.48C11.7724 40.7943 11.6153 41.0667 11.4058 41.2972C11.2032 41.5276 10.9553 41.7092 10.662 41.8419C10.3686 41.9676 10.0334 42.0305 9.65626 42.0305C9.27911 42.0305 8.94388 41.9676 8.65054 41.8419C8.35721 41.7092 8.10578 41.5276 7.89626 41.2972C7.69372 41.0667 7.54007 40.7943 7.4353 40.48C7.33054 40.1588 7.27816 39.8095 7.27816 39.4324C7.27816 39.0553 7.33054 38.7095 7.4353 38.3953C7.54007 38.074 7.69372 37.7981 7.89626 37.5676C8.10578 37.3372 8.35721 37.1591 8.65054 37.0334C8.94388 36.9007 9.27911 36.8343 9.65626 36.8343ZM9.65626 41.3286C9.9007 41.3286 10.1137 41.2797 10.2953 41.1819C10.4839 41.0772 10.6375 40.941 10.7563 40.7734C10.882 40.5988 10.9728 40.3962 11.0286 40.1657C11.0915 39.9353 11.1229 39.6908 11.1229 39.4324C11.1229 39.174 11.0915 38.9295 11.0286 38.6991C10.9728 38.4686 10.882 38.2695 10.7563 38.1019C10.6375 37.9273 10.4839 37.7911 10.2953 37.6934C10.1137 37.5886 9.9007 37.5362 9.65626 37.5362C9.41181 37.5362 9.1953 37.5886 9.00673 37.6934C8.82515 37.7911 8.6715 37.9273 8.54578 38.1019C8.42705 38.2695 8.33626 38.4686 8.2734 38.6991C8.21753 38.9295 8.18959 39.174 8.18959 39.4324C8.18959 39.6908 8.21753 39.9353 8.2734 40.1657C8.33626 40.3962 8.42705 40.5988 8.54578 40.7734C8.6715 40.941 8.82515 41.0772 9.00673 41.1819C9.1953 41.2797 9.41181 41.3286 9.65626 41.3286ZM13.3333 36.96H14.1609V37.7038C14.3216 37.4384 14.5206 37.2289 14.7581 37.0753C14.9955 36.9146 15.2924 36.8343 15.6486 36.8343C15.9978 36.8343 16.3016 36.9111 16.56 37.0648C16.8254 37.2184 17.0174 37.4419 17.1362 37.7353C17.206 37.6235 17.2933 37.5153 17.3981 37.4105C17.5028 37.2988 17.6251 37.201 17.7647 37.1172C17.9044 37.0334 18.0546 36.967 18.2152 36.9181C18.3828 36.8622 18.5574 36.8343 18.739 36.8343C18.9625 36.8343 19.172 36.8692 19.3676 36.9391C19.5701 37.0089 19.7447 37.1137 19.8914 37.2534C20.0381 37.3861 20.1533 37.5572 20.2371 37.7667C20.3279 37.9692 20.3733 38.2067 20.3733 38.4791V41.9048H19.4933V38.6153C19.4933 38.4267 19.4654 38.2661 19.4095 38.1334C19.3536 38.0007 19.2803 37.8924 19.1895 37.8086C19.1057 37.7178 19.0044 37.6549 18.8857 37.62C18.774 37.5781 18.6587 37.5572 18.54 37.5572C18.3794 37.5572 18.2222 37.5956 18.0686 37.6724C17.9219 37.7492 17.7892 37.8575 17.6705 37.9972C17.5587 38.1368 17.4679 38.3115 17.3981 38.521C17.3282 38.7235 17.2933 38.954 17.2933 39.2124V41.9048H16.4133V38.6153C16.4133 38.4267 16.3854 38.2661 16.3295 38.1334C16.2736 38.0007 16.2003 37.8924 16.1095 37.8086C16.0187 37.7178 15.914 37.6549 15.7952 37.62C15.6835 37.5781 15.5682 37.5572 15.4495 37.5572C15.2889 37.5572 15.1352 37.5956 14.9886 37.6724C14.8419 37.7492 14.7092 37.8575 14.5905 37.9972C14.4787 38.1368 14.3879 38.3115 14.3181 38.521C14.2482 38.7235 14.2133 38.954 14.2133 39.2124V41.9048H13.3333V36.96ZM26.0111 40.7734C25.8225 41.1505 25.5641 41.4543 25.2358 41.6848C24.9146 41.9153 24.4955 42.0305 23.9787 42.0305C23.6085 42.0305 23.2768 41.9676 22.9834 41.8419C22.6901 41.7092 22.4422 41.5276 22.2396 41.2972C22.0371 41.0597 21.8834 40.7838 21.7787 40.4695C21.6739 40.1483 21.6215 39.7991 21.6215 39.4219C21.6215 39.0518 21.6739 38.7095 21.7787 38.3953C21.8904 38.074 22.0441 37.7981 22.2396 37.5676C22.4422 37.3372 22.6866 37.1591 22.973 37.0334C23.2663 36.9007 23.5911 36.8343 23.9473 36.8343C24.3244 36.8343 24.6527 36.9041 24.932 37.0438C25.2114 37.1765 25.4419 37.3581 25.6234 37.5886C25.812 37.8121 25.9517 38.074 26.0425 38.3743C26.1333 38.6676 26.1787 38.9749 26.1787 39.2962V39.5895H22.5225C22.5295 39.82 22.5644 40.0435 22.6273 40.26C22.6901 40.4695 22.7774 40.6581 22.8892 40.8257C23.0079 40.9864 23.158 41.1156 23.3396 41.2134C23.5212 41.3042 23.7377 41.3495 23.9892 41.3495C24.3314 41.3495 24.5933 41.2727 24.7749 41.1191C24.9565 40.9654 25.1101 40.7454 25.2358 40.4591L26.0111 40.7734ZM23.9263 37.5153C23.5282 37.5153 23.2104 37.6515 22.973 37.9238C22.7355 38.1892 22.5958 38.5245 22.5539 38.9295H25.2777C25.2568 38.4895 25.1206 38.1438 24.8692 37.8924C24.6247 37.641 24.3104 37.5153 23.9263 37.5153Z" fill="white"/>
</svg>
