<svg width="24" height="24" viewBox="0 0 24 24" fill="none" xmlns="http://www.w3.org/2000/svg">
<path d="M10.2235 7.8375C10.2235 8.44687 10.2235 9.0375 10.4156 9.59063C8.39534 11.9625 2.56409 18.7078 2.56409 18.7078L2.70002 20.4094C2.70002 20.4094 4.33127 21.9562 4.57502 21.7219C5.2969 21.0187 5.73752 20.5406 5.73752 20.5406L6.0769 18.5086L8.28518 18.3459L8.46237 16.1522L10.7888 16.1077L10.8117 13.7597L13.2816 13.8581L13.7035 12.975C14.43 13.2891 15.091 13.4156 15.9394 13.4156C19.1503 13.4156 21.7519 10.9125 21.7519 7.82812C21.7519 4.74375 19.1485 2.25 15.9375 2.25C12.7266 2.25 10.2235 4.75312 10.2235 7.8375ZM19.0711 6.75C19.0711 7.11018 18.9643 7.46227 18.7642 7.76175C18.5641 8.06122 18.2797 8.29464 17.9469 8.43247C17.6142 8.57031 17.248 8.60637 16.8947 8.5361C16.5415 8.46584 16.217 8.29239 15.9623 8.03771C15.7076 7.78302 15.5342 7.45854 15.4639 7.10528C15.3937 6.75202 15.4297 6.38586 15.5676 6.0531C15.7054 5.72034 15.9388 5.43592 16.2383 5.23582C16.5378 5.03571 16.8898 4.92891 17.25 4.92891C17.4892 4.92866 17.7262 4.9756 17.9472 5.06703C18.1683 5.15846 18.3691 5.29259 18.5383 5.46174C18.7074 5.6309 18.8416 5.83175 18.933 6.05281C19.0244 6.27386 19.0714 6.51078 19.0711 6.75Z" fill="#929292"/>
</svg>
