<svg width="40" height="45" viewBox="0 0 40 45" fill="none" xmlns="http://www.w3.org/2000/svg">
<path d="M20.1975 16.9762V19.0762" stroke="#DEDEDE" stroke-width="1.5" stroke-linecap="round" stroke-linejoin="round"/>
<path d="M15.1975 22.4762H25.1975V21.4762C25.1975 20.3762 24.2975 19.4762 23.1975 19.4762H17.1975C16.0975 19.4762 15.1975 20.3762 15.1975 21.4762V22.4762V22.4762Z" stroke="#DEDEDE" stroke-width="1.5" stroke-miterlimit="10"/>
<path d="M14.1975 22.4762H26.1975" stroke="#DEDEDE" stroke-width="1.5" stroke-linecap="round" stroke-linejoin="round"/>
<path d="M20.0475 16.4762C16.1775 16.4762 13.0475 13.3462 13.0475 9.4762V6.4762C13.0475 4.2662 14.8375 2.4762 17.0475 2.4762H23.0475C25.2575 2.4762 27.0475 4.2662 27.0475 6.4762V9.4762C27.0475 13.3462 23.9175 16.4762 20.0475 16.4762Z" stroke="#DEDEDE" stroke-width="1.5" stroke-linecap="round" stroke-linejoin="round"/>
<path d="M13.5175 12.1262C12.7675 11.8862 12.1075 11.4462 11.5875 10.9262C10.6875 9.92617 10.0875 8.72617 10.0875 7.32617C10.0875 5.92617 11.1875 4.82617 12.5875 4.82617H13.2375C13.0375 5.28617 12.9375 5.79617 12.9375 6.32617V9.32617C12.9375 10.3262 13.1475 11.2662 13.5175 12.1262Z" stroke="#DEDEDE" stroke-width="1.5" stroke-linecap="round" stroke-linejoin="round"/>
<path d="M26.5775 12.1262C27.3275 11.8862 27.9875 11.4462 28.5075 10.9262C29.4075 9.92617 30.0075 8.72617 30.0075 7.32617C30.0075 5.92617 28.9075 4.82617 27.5075 4.82617H26.8575C27.0575 5.28617 27.1575 5.79617 27.1575 6.32617V9.32617C27.1575 10.3262 26.9475 11.2662 26.5775 12.1262Z" stroke="#DEDEDE" stroke-width="1.5" stroke-linecap="round" stroke-linejoin="round"/>
<path d="M4.07583 40.762C3.98503 40.5385 3.87678 40.2696 3.75106 39.9553C3.62535 39.641 3.48916 39.3023 3.34249 38.9391C3.20281 38.5689 3.05614 38.1883 2.90249 37.7972C2.75583 37.3991 2.61265 37.0115 2.47297 36.6343C2.33329 36.2572 2.20408 35.901 2.08535 35.5658C1.96662 35.2235 1.86884 34.9267 1.79202 34.6753H1.77106V40.762H0.943445V33.4286H2.14821C2.52535 34.4413 2.87805 35.3737 3.2063 36.2258C3.339 36.5889 3.47519 36.9521 3.61487 37.3153C3.75456 37.6785 3.88376 38.0172 4.00249 38.3315C4.12122 38.6458 4.22249 38.9182 4.3063 39.1486C4.3971 39.3791 4.46344 39.5467 4.50535 39.6515C4.54027 39.5467 4.59964 39.3791 4.68344 39.1486C4.77424 38.9182 4.87551 38.6458 4.98725 38.3315C5.10598 38.0172 5.2317 37.6785 5.3644 37.3153C5.4971 36.9521 5.62979 36.5889 5.76249 36.2258C6.07678 35.3737 6.42249 34.4413 6.79964 33.4286H7.99392V40.762H7.1663V34.6753H7.14535C7.06154 34.9337 6.95678 35.241 6.83106 35.5972C6.70535 35.9464 6.56916 36.3166 6.42249 36.7077C6.27583 37.0988 6.12567 37.4969 5.97202 37.902C5.81837 38.307 5.6717 38.6912 5.53202 39.0543C5.39233 39.4175 5.26313 39.7493 5.1444 40.0496C5.02567 40.3429 4.93138 40.5804 4.86154 40.762H4.07583ZM9.63385 34.0782C9.63385 33.9175 9.68624 33.7813 9.791 33.6696C9.90274 33.5578 10.0424 33.502 10.21 33.502C10.3777 33.502 10.5139 33.5578 10.6186 33.6696C10.7304 33.7813 10.7862 33.9175 10.7862 34.0782C10.7862 34.2318 10.7304 34.3645 10.6186 34.4762C10.5139 34.588 10.3777 34.6439 10.21 34.6439C10.0424 34.6439 9.90274 34.588 9.791 34.4762C9.68624 34.3645 9.63385 34.2318 9.63385 34.0782ZM9.77004 35.8172H10.65V40.762H9.77004V35.8172ZM12.8829 37.1058C12.8829 37.3432 12.9772 37.5178 13.1658 37.6296C13.3544 37.7343 13.6442 37.8147 14.0353 37.8705C14.2937 37.9124 14.5382 37.9648 14.7687 38.0277C14.9991 38.0905 15.1982 38.1813 15.3658 38.3001C15.5404 38.4118 15.6766 38.5515 15.7744 38.7191C15.8722 38.8867 15.921 39.0962 15.921 39.3477C15.921 39.8226 15.7429 40.1997 15.3868 40.4791C15.0306 40.7515 14.5382 40.8877 13.9096 40.8877C13.302 40.8877 12.8236 40.755 12.4744 40.4896C12.1252 40.2242 11.9226 39.8401 11.8668 39.3372L12.7363 39.222C12.7712 39.5572 12.8829 39.8051 13.0715 39.9658C13.2601 40.1264 13.5429 40.2067 13.9201 40.2067C14.2763 40.2067 14.5522 40.1369 14.7477 39.9972C14.9433 39.8575 15.041 39.6585 15.041 39.4001C15.041 39.1696 14.9468 38.9985 14.7582 38.8867C14.5696 38.768 14.2379 38.6702 13.7629 38.5934C13.1344 38.4956 12.6839 38.3315 12.4115 38.101C12.1391 37.8636 12.0029 37.5458 12.0029 37.1477C12.0029 36.9102 12.0518 36.7007 12.1496 36.5191C12.2544 36.3375 12.3941 36.1874 12.5687 36.0686C12.7433 35.9429 12.9423 35.8486 13.1658 35.7858C13.3963 35.7229 13.6372 35.6915 13.8887 35.6915C14.4264 35.6915 14.8699 35.8172 15.2191 36.0686C15.5753 36.3131 15.7814 36.6518 15.8372 37.0848L14.9677 37.2629C14.9328 36.9766 14.8245 36.7566 14.6429 36.6029C14.4614 36.4423 14.1995 36.362 13.8572 36.362C13.5779 36.362 13.3439 36.4248 13.1553 36.5505C12.9737 36.6693 12.8829 36.8543 12.8829 37.1058ZM17.7834 37.1058C17.7834 37.3432 17.8777 37.5178 18.0663 37.6296C18.2549 37.7343 18.5447 37.8147 18.9358 37.8705C19.1942 37.9124 19.4387 37.9648 19.6691 38.0277C19.8996 38.0905 20.0987 38.1813 20.2663 38.3001C20.4409 38.4118 20.5771 38.5515 20.6749 38.7191C20.7726 38.8867 20.8215 39.0962 20.8215 39.3477C20.8215 39.8226 20.6434 40.1997 20.2872 40.4791C19.931 40.7515 19.4387 40.8877 18.8101 40.8877C18.2025 40.8877 17.7241 40.755 17.3749 40.4896C17.0257 40.2242 16.8231 39.8401 16.7672 39.3372L17.6368 39.222C17.6717 39.5572 17.7834 39.8051 17.972 39.9658C18.1606 40.1264 18.4434 40.2067 18.8206 40.2067C19.1768 40.2067 19.4526 40.1369 19.6482 39.9972C19.8437 39.8575 19.9415 39.6585 19.9415 39.4001C19.9415 39.1696 19.8472 38.9985 19.6587 38.8867C19.4701 38.768 19.1384 38.6702 18.6634 38.5934C18.0349 38.4956 17.5844 38.3315 17.312 38.101C17.0396 37.8636 16.9034 37.5458 16.9034 37.1477C16.9034 36.9102 16.9523 36.7007 17.0501 36.5191C17.1549 36.3375 17.2945 36.1874 17.4691 36.0686C17.6437 35.9429 17.8428 35.8486 18.0663 35.7858C18.2968 35.7229 18.5377 35.6915 18.7891 35.6915C19.3269 35.6915 19.7704 35.8172 20.1196 36.0686C20.4758 36.3131 20.6818 36.6518 20.7377 37.0848L19.8682 37.2629C19.8333 36.9766 19.725 36.7566 19.5434 36.6029C19.3618 36.4423 19.0999 36.362 18.7577 36.362C18.4784 36.362 18.2444 36.4248 18.0558 36.5505C17.8742 36.6693 17.7834 36.8543 17.7834 37.1058ZM21.9413 34.0782C21.9413 33.9175 21.9937 33.7813 22.0985 33.6696C22.2102 33.5578 22.3499 33.502 22.5175 33.502C22.6851 33.502 22.8213 33.5578 22.9261 33.6696C23.0378 33.7813 23.0937 33.9175 23.0937 34.0782C23.0937 34.2318 23.0378 34.3645 22.9261 34.4762C22.8213 34.588 22.6851 34.6439 22.5175 34.6439C22.3499 34.6439 22.2102 34.588 22.0985 34.4762C21.9937 34.3645 21.9413 34.2318 21.9413 34.0782ZM22.0775 35.8172H22.9575V40.762H22.0775V35.8172ZM26.6361 35.6915C27.0133 35.6915 27.3485 35.7578 27.6419 35.8905C27.9352 36.0162 28.1831 36.1943 28.3857 36.4248C28.5952 36.6553 28.7523 36.9312 28.8571 37.2524C28.9619 37.5667 29.0142 37.9124 29.0142 38.2896C29.0142 38.6667 28.9619 39.0159 28.8571 39.3372C28.7523 39.6515 28.5952 39.9239 28.3857 40.1543C28.1831 40.3848 27.9352 40.5664 27.6419 40.6991C27.3485 40.8248 27.0133 40.8877 26.6361 40.8877C26.259 40.8877 25.9238 40.8248 25.6304 40.6991C25.3371 40.5664 25.0857 40.3848 24.8761 40.1543C24.6736 39.9239 24.5199 39.6515 24.4152 39.3372C24.3104 39.0159 24.258 38.6667 24.258 38.2896C24.258 37.9124 24.3104 37.5667 24.4152 37.2524C24.5199 36.9312 24.6736 36.6553 24.8761 36.4248C25.0857 36.1943 25.3371 36.0162 25.6304 35.8905C25.9238 35.7578 26.259 35.6915 26.6361 35.6915ZM26.6361 40.1858C26.8806 40.1858 27.0936 40.1369 27.2752 40.0391C27.4638 39.9343 27.6174 39.7982 27.7361 39.6305C27.8619 39.4559 27.9526 39.2534 28.0085 39.0229C28.0714 38.7924 28.1028 38.548 28.1028 38.2896C28.1028 38.0312 28.0714 37.7867 28.0085 37.5562C27.9526 37.3258 27.8619 37.1267 27.7361 36.9591C27.6174 36.7845 27.4638 36.6483 27.2752 36.5505C27.0936 36.4458 26.8806 36.3934 26.6361 36.3934C26.3917 36.3934 26.1752 36.4458 25.9866 36.5505C25.805 36.6483 25.6514 36.7845 25.5257 36.9591C25.4069 37.1267 25.3161 37.3258 25.2533 37.5562C25.1974 37.7867 25.1695 38.0312 25.1695 38.2896C25.1695 38.548 25.1974 38.7924 25.2533 39.0229C25.3161 39.2534 25.4069 39.4559 25.5257 39.6305C25.6514 39.7982 25.805 39.9343 25.9866 40.0391C26.1752 40.1369 26.3917 40.1858 26.6361 40.1858ZM30.3132 35.8172H31.1408V36.561C31.3154 36.2956 31.5249 36.0861 31.7694 35.9324C32.0208 35.7718 32.3316 35.6915 32.7018 35.6915C32.9392 35.6915 33.1662 35.7264 33.3827 35.7962C33.5992 35.8661 33.7843 35.9709 33.938 36.1105C34.0986 36.2432 34.2243 36.4143 34.3151 36.6239C34.4129 36.8264 34.4618 37.0639 34.4618 37.3362V40.762H33.5818V37.4724C33.5818 37.2839 33.5503 37.1232 33.4875 36.9905C33.4246 36.8578 33.3408 36.7496 33.2361 36.6658C33.1383 36.575 33.0265 36.5121 32.9008 36.4772C32.7751 36.4353 32.6494 36.4143 32.5237 36.4143C32.3491 36.4143 32.1815 36.4528 32.0208 36.5296C31.8602 36.6064 31.717 36.7147 31.5913 36.8543C31.4726 36.994 31.3748 37.1686 31.298 37.3782C31.2281 37.5807 31.1932 37.8112 31.1932 38.0696V40.762H30.3132V35.8172ZM36.6385 37.1058C36.6385 37.3432 36.7328 37.5178 36.9214 37.6296C37.11 37.7343 37.3998 37.8147 37.7909 37.8705C38.0493 37.9124 38.2938 37.9648 38.5242 38.0277C38.7547 38.0905 38.9538 38.1813 39.1214 38.3001C39.296 38.4118 39.4322 38.5515 39.53 38.7191C39.6277 38.8867 39.6766 39.0962 39.6766 39.3477C39.6766 39.8226 39.4985 40.1997 39.1423 40.4791C38.7861 40.7515 38.2938 40.8877 37.6652 40.8877C37.0576 40.8877 36.5792 40.755 36.23 40.4896C35.8807 40.2242 35.6782 39.8401 35.6223 39.3372L36.4919 39.222C36.5268 39.5572 36.6385 39.8051 36.8271 39.9658C37.0157 40.1264 37.2985 40.2067 37.6757 40.2067C38.0319 40.2067 38.3077 40.1369 38.5033 39.9972C38.6988 39.8575 38.7966 39.6585 38.7966 39.4001C38.7966 39.1696 38.7023 38.9985 38.5138 38.8867C38.3252 38.768 37.9934 38.6702 37.5185 38.5934C36.89 38.4956 36.4395 38.3315 36.1671 38.101C35.8947 37.8636 35.7585 37.5458 35.7585 37.1477C35.7585 36.9102 35.8074 36.7007 35.9052 36.5191C36.01 36.3375 36.1496 36.1874 36.3242 36.0686C36.4988 35.9429 36.6979 35.8486 36.9214 35.7858C37.1519 35.7229 37.3928 35.6915 37.6442 35.6915C38.182 35.6915 38.6255 35.8172 38.9747 36.0686C39.3309 36.3131 39.5369 36.6518 39.5928 37.0848L38.7233 37.2629C38.6884 36.9766 38.5801 36.7566 38.3985 36.6029C38.2169 36.4423 37.955 36.362 37.6128 36.362C37.3334 36.362 37.0995 36.4248 36.9109 36.5505C36.7293 36.6693 36.6385 36.8543 36.6385 37.1058Z" fill="white"/>
</svg>
