<svg width="18" height="18" viewBox="0 0 18 18" fill="none" xmlns="http://www.w3.org/2000/svg">
<path d="M3 3H6.0075V1.5H1.5V6H3V3ZM3 12H1.5V16.5H6.0075V15H3V12ZM15 15H12V16.5H16.5V12H15V15ZM12 3H15V6H16.5V1.5H12V3Z" fill="white"/>
<path d="M3.75 8.25H8.25V3.75H3.75V8.25ZM5.25 5.25H6.75V6.75H5.25V5.25ZM3.75 14.25H8.25V9.75H3.75V14.25ZM5.25 11.25H6.75V12.75H5.25V11.25ZM14.25 3.75H9.75V8.25H14.25V3.75ZM12.75 6.75H11.25V5.25H12.75V6.75ZM9.7575 9.75H11.2575V11.25H9.7575V9.75ZM11.2575 11.25H12.7575V12.75H11.2575V11.25ZM12.7575 12.75H14.2575V14.25H12.7575V12.75ZM12.7575 9.75H14.2575V11.25H12.7575V9.75Z" fill="white"/>
</svg>
