<svg width="16" height="16" viewBox="0 0 16 16" fill="none" xmlns="http://www.w3.org/2000/svg">
<circle cx="8" cy="8" r="8" fill="#1ABA20"/>
<g clip-path="url(#clip0_525_2338)">
<path d="M7.4815 10.7186L5.43335 8.67049C5.38552 8.62096 5.32831 8.58146 5.26504 8.55428C5.20178 8.52711 5.13374 8.5128 5.06489 8.51221C4.99605 8.51161 4.92777 8.52473 4.86404 8.5508C4.80032 8.57687 4.74243 8.61537 4.69374 8.66406C4.64506 8.71274 4.60655 8.77064 4.58048 8.83436C4.55441 8.89808 4.54129 8.96636 4.54189 9.03521C4.54249 9.10406 4.55679 9.1721 4.58397 9.23536C4.61114 9.29862 4.65064 9.35584 4.70017 9.40367L7.63343 12.3369C7.73066 12.4341 7.86253 12.4887 8.00002 12.4887C8.13751 12.4887 8.26938 12.4341 8.36661 12.3369L11.2999 9.40367C11.3943 9.30588 11.4466 9.1749 11.4454 9.03894C11.4442 8.90299 11.3897 8.77294 11.2936 8.6768C11.1974 8.58066 11.0674 8.52613 10.9314 8.52495C10.7955 8.52377 10.6645 8.57603 10.5667 8.67049L8.51854 10.7186V3.85189C8.51854 3.71437 8.46391 3.58249 8.36667 3.48524C8.26943 3.388 8.13754 3.33337 8.00002 3.33337C7.8625 3.33337 7.73061 3.388 7.63337 3.48524C7.53613 3.58249 7.4815 3.71437 7.4815 3.85189V10.7186Z" fill="white"/>
</g>
<defs>
<clipPath id="clip0_525_2338">
<rect width="12.4444" height="12.4444" fill="white" transform="translate(1.77777 1.77783)"/>
</clipPath>
</defs>
</svg>
