<svg width="14" height="14" viewBox="0 0 14 14" fill="none" xmlns="http://www.w3.org/2000/svg">
<path fill-rule="evenodd" clip-rule="evenodd" d="M8.78876 9.08449C7.77773 9.89232 6.49576 10.2824 5.20614 10.1745C3.91652 10.0666 2.71714 9.46907 1.85435 8.50453C0.991563 7.53998 0.530851 6.28168 0.566841 4.98806C0.60283 3.69443 1.13279 2.46369 2.04787 1.54861C2.96296 0.633522 4.1937 0.103563 5.48732 0.0675731C6.78095 0.0315833 8.03925 0.492295 9.0038 1.35509C9.96834 2.21788 10.5659 3.41725 10.6738 4.70687C10.7816 5.99649 10.3916 7.27846 9.58376 8.28949L13.4508 12.1557C13.506 12.2072 13.5503 12.2693 13.5811 12.3383C13.6118 12.4073 13.6284 12.4818 13.6297 12.5573C13.631 12.6329 13.6171 12.7079 13.5888 12.7779C13.5606 12.848 13.5184 12.9116 13.465 12.965C13.4116 13.0184 13.348 13.0605 13.278 13.0888C13.2079 13.1171 13.1329 13.131 13.0574 13.1297C12.9818 13.1284 12.9074 13.1118 12.8384 13.0811C12.7694 13.0503 12.7073 13.006 12.6558 12.9507L8.78876 9.08449ZM2.84501 7.91299C2.29454 7.36246 1.91962 6.66111 1.76764 5.89757C1.61566 5.13403 1.69344 4.34257 1.99114 3.62321C2.28884 2.90386 2.79311 2.28891 3.44022 1.85606C4.08732 1.42322 4.84821 1.19193 5.62673 1.1914C6.40525 1.19088 7.16646 1.42115 7.81414 1.85312C8.46183 2.28509 8.96693 2.89937 9.2656 3.61832C9.56427 4.33727 9.64311 5.12862 9.49216 5.89237C9.3412 6.65612 8.96723 7.35797 8.41751 7.90924L8.41376 7.91299L8.41001 7.91599C7.67133 8.65296 6.67033 9.06659 5.62688 9.06602C4.58344 9.06546 3.58289 8.65075 2.84501 7.91299Z" fill="white"/>
</svg>
