<svg width="16" height="16" viewBox="0 0 16 16" fill="none" xmlns="http://www.w3.org/2000/svg">
<circle cx="8" cy="8" r="8" fill="#5497D5"/>
<path d="M13.2938 7.66631L5.04377 3.54131C4.97911 3.50898 4.90648 3.49602 4.83462 3.504C4.76277 3.51199 4.69475 3.54057 4.63877 3.58631C4.5853 3.63112 4.5454 3.68996 4.52353 3.7562C4.50167 3.82245 4.49872 3.89348 4.51502 3.96131L5.50877 7.62506H9.75002V8.37506H5.50877L4.50002 12.0276C4.48473 12.0842 4.48294 12.1437 4.49481 12.2011C4.50667 12.2586 4.53185 12.3125 4.56833 12.3584C4.6048 12.4044 4.65155 12.4411 4.70482 12.4657C4.75808 12.4903 4.81638 12.5021 4.87502 12.5001C4.93372 12.4997 4.99152 12.4856 5.04377 12.4588L13.2938 8.33381C13.3552 8.30234 13.4067 8.25453 13.4427 8.19565C13.4787 8.13676 13.4978 8.06908 13.4978 8.00006C13.4978 7.93105 13.4787 7.86337 13.4427 7.80448C13.4067 7.74559 13.3552 7.69778 13.2938 7.66631Z" fill="white"/>
</svg>
