<svg width="46" height="46" viewBox="0 0 46 46" fill="none" xmlns="http://www.w3.org/2000/svg">
<circle cx="23" cy="23" r="23" fill="black"/>
<g clip-path="url(#clip0_409_2446)">
<path d="M34.3816 29.1179L30.5847 33.1288C30.5022 33.2159 30.4023 33.2854 30.2913 33.3328C30.1804 33.3803 30.0607 33.4048 29.9397 33.4047H11.9408C11.8549 33.4047 11.7709 33.38 11.6991 33.3336C11.6273 33.2872 11.5708 33.2212 11.5365 33.1436C11.5023 33.066 11.4918 32.9803 11.5064 32.8969C11.5209 32.8135 11.5599 32.7362 11.6185 32.6743L15.4182 28.6634C15.5005 28.5765 15.6001 28.5072 15.7107 28.4598C15.8213 28.4123 15.9406 28.3877 16.0613 28.3875H34.0592C34.1451 28.3875 34.2291 28.4122 34.301 28.4586C34.3727 28.505 34.4292 28.571 34.4636 28.6486C34.4977 28.7262 34.5082 28.8119 34.4936 28.8953C34.4791 28.9787 34.4401 29.056 34.3816 29.1179ZM30.5847 21.0411C30.5022 20.954 30.4023 20.8845 30.2913 20.837C30.1804 20.7896 30.0607 20.7651 29.9397 20.7652H11.9408C11.8549 20.7652 11.7709 20.7899 11.6991 20.8363C11.6273 20.8827 11.5708 20.9487 11.5365 21.0263C11.5023 21.1039 11.4918 21.1896 11.5064 21.273C11.5209 21.3563 11.5599 21.4337 11.6185 21.4956L15.4182 25.5065C15.5005 25.5933 15.6001 25.6627 15.7107 25.7101C15.8213 25.7576 15.9406 25.7822 16.0613 25.7824H34.0592C34.1451 25.7824 34.2291 25.7577 34.301 25.7113C34.3727 25.6649 34.4292 25.5989 34.4636 25.5213C34.4977 25.4437 34.5082 25.3579 34.4936 25.2746C34.4791 25.1912 34.4401 25.1139 34.3816 25.052L30.5847 21.0411ZM11.9408 18.1601H29.9397C30.0607 18.1601 30.1804 18.1357 30.2913 18.0882C30.4023 18.0407 30.5022 17.9712 30.5847 17.8841L34.3816 13.8732C34.4401 13.8114 34.4791 13.734 34.4936 13.6506C34.5082 13.5673 34.4977 13.4815 34.4636 13.4039C34.4292 13.3264 34.3727 13.2603 34.301 13.2139C34.2291 13.1675 34.1451 13.1428 34.0592 13.1428H16.0613C15.9406 13.143 15.8213 13.1676 15.7107 13.2151C15.6001 13.2626 15.5005 13.3319 15.4182 13.4188L11.6195 17.4297C11.561 17.4914 11.522 17.5687 11.5074 17.652C11.4928 17.7353 11.5032 17.821 11.5373 17.8985C11.5714 17.976 11.6278 18.0421 11.6994 18.0885C11.7711 18.135 11.855 18.1599 11.9408 18.1601Z" fill="url(#paint0_linear_409_2446)"/>
</g>
<defs>
<linearGradient id="paint0_linear_409_2446" x1="13.4415" y1="33.8876" x2="31.9976" y2="12.6509" gradientUnits="userSpaceOnUse">
<stop offset="0.08" stop-color="#9945FF"/>
<stop offset="0.3" stop-color="#8752F3"/>
<stop offset="0.5" stop-color="#5497D5"/>
<stop offset="0.6" stop-color="#43B4CA"/>
<stop offset="0.72" stop-color="#28E0B9"/>
<stop offset="0.97" stop-color="#19FB9B"/>
</linearGradient>
<clipPath id="clip0_409_2446">
<rect width="23" height="20.2619" fill="white" transform="translate(11.5 13.1428)"/>
</clipPath>
</defs>
</svg>
