<svg width="16" height="26" viewBox="0 0 16 26" fill="none" xmlns="http://www.w3.org/2000/svg">
<path d="M13.2454 8.75603H15.7762C15.7762 5.16604 12.29 3.5286 9.4491 3.1515V0.530823H6.91827V3.1515C4.07741 3.5286 0.591187 5.16604 0.591187 8.75603C0.591187 12.1802 3.96479 13.9607 6.91827 14.3618V20.6509C5.08595 20.3333 3.12202 19.3552 3.12202 17.6139H0.591187C0.591187 20.8901 3.65982 22.8262 6.91827 23.2273V25.8392H9.4491V23.2197C12.29 22.8427 15.7762 21.2039 15.7762 17.6139C15.7762 14.024 12.29 12.3865 9.4491 12.0094V5.71903C11.1321 6.02147 13.2454 6.90979 13.2454 8.75603ZM3.12202 8.75603C3.12202 6.90979 5.23527 6.02147 6.91827 5.71903V11.7918C5.18338 11.4716 3.12202 10.5238 3.12202 8.75603ZM13.2454 17.6139C13.2454 19.4602 11.1321 20.3485 9.4491 20.6509V14.5769C11.1321 14.8794 13.2454 15.7677 13.2454 17.6139Z" fill="white"/>
</svg>
