<svg width="28" height="28" viewBox="0 0 28 28" fill="none" xmlns="http://www.w3.org/2000/svg">
<path d="M20.8952 15.6263C20.4121 16.0979 20.1361 16.7765 20.2051 17.5011C20.3086 18.7433 21.4473 19.6519 22.6894 19.6519H24.8748V21.0206C24.8748 23.4015 22.931 25.3453 20.5501 25.3453H7.34613C4.96527 25.3453 3.02148 23.4015 3.02148 21.0206V13.28C3.02148 10.8991 4.96527 8.95532 7.34613 8.95532H20.5501C22.931 8.95532 24.8748 10.8991 24.8748 13.28V14.9362H22.5514C21.9073 14.9362 21.3207 15.1892 20.8952 15.6263Z" stroke="#FDFDFD" stroke-width="0.811887" stroke-linecap="round" stroke-linejoin="round"/>
<path d="M3.02136 14.3149V9.05867C3.02136 7.68996 3.86099 6.47073 5.13768 5.98765L14.2701 2.53713C15.6963 1.99655 17.226 3.05474 17.226 4.58447V8.95512" stroke="#FDFDFD" stroke-width="0.811887" stroke-linecap="round" stroke-linejoin="round"/>
<path d="M26.0925 16.1097V18.4791C26.0925 19.1117 25.5864 19.6292 24.9423 19.6522H22.688C21.4458 19.6522 20.3071 18.7436 20.2036 17.5014C20.1346 16.7768 20.4106 16.0982 20.8937 15.6266C21.3193 15.1895 21.9058 14.9365 22.5499 14.9365H24.9423C25.5864 14.9595 26.0925 15.4771 26.0925 16.1097Z" stroke="#FDFDFD" stroke-width="0.811887" stroke-linecap="round" stroke-linejoin="round"/>
<path d="M8.19714 13.8438H16.2484" stroke="#FDFDFD" stroke-width="0.811887" stroke-linecap="round" stroke-linejoin="round"/>
</svg>
